<mxfile host="app.diagrams.net" agent="Mozilla/5.0 (Windows NT 10.0; Win64; x64) AppleWebKit/537.36 (KHTML, like Gecko) Chrome/137.0.0.0 Safari/537.36" version="27.2.0">
  <diagram name="페이지-1" id="ghzKI8ujqwkCkFfVu-zC">
    <mxGraphModel dx="2066" dy="1103" grid="1" gridSize="10" guides="1" tooltips="1" connect="1" arrows="1" fold="1" page="1" pageScale="1" pageWidth="827" pageHeight="1169" math="0" shadow="0">
      <root>
        <mxCell id="0" />
        <mxCell id="1" parent="0" />
        <mxCell id="iIwBfgPybOV4BaAUDwty-17" value="" style="edgeStyle=orthogonalEdgeStyle;rounded=0;orthogonalLoop=1;jettySize=auto;html=1;endArrow=open;endFill=0;entryX=1;entryY=0.5;entryDx=0;entryDy=0;" parent="1" source="iIwBfgPybOV4BaAUDwty-6" target="iIwBfgPybOV4BaAUDwty-16" edge="1">
          <mxGeometry relative="1" as="geometry">
            <mxPoint x="260" y="260" as="targetPoint" />
          </mxGeometry>
        </mxCell>
        <mxCell id="iIwBfgPybOV4BaAUDwty-34" value="" style="rounded=0;orthogonalLoop=1;jettySize=auto;html=1;endArrow=open;endFill=0;entryX=0;entryY=0.25;entryDx=0;entryDy=0;" parent="1" source="iIwBfgPybOV4BaAUDwty-6" target="iIwBfgPybOV4BaAUDwty-10" edge="1">
          <mxGeometry relative="1" as="geometry">
            <mxPoint x="560" y="339" as="targetPoint" />
          </mxGeometry>
        </mxCell>
        <mxCell id="iIwBfgPybOV4BaAUDwty-6" value="Client" style="swimlane;fontStyle=0;childLayout=stackLayout;horizontal=1;startSize=26;fillColor=none;horizontalStack=0;resizeParent=1;resizeParentMax=0;resizeLast=0;collapsible=1;marginBottom=0;whiteSpace=wrap;html=1;" parent="1" vertex="1">
          <mxGeometry x="310" y="313" width="140" height="52" as="geometry" />
        </mxCell>
        <mxCell id="iIwBfgPybOV4BaAUDwty-22" value="" style="edgeStyle=orthogonalEdgeStyle;rounded=0;orthogonalLoop=1;jettySize=auto;html=1;startArrow=block;startFill=0;endArrow=none;endFill=0;dashed=1;" parent="1" source="iIwBfgPybOV4BaAUDwty-10" target="iIwBfgPybOV4BaAUDwty-20" edge="1">
          <mxGeometry relative="1" as="geometry" />
        </mxCell>
        <mxCell id="iIwBfgPybOV4BaAUDwty-10" value="&amp;lt;&amp;lt;interface&amp;gt;&amp;gt;&lt;div&gt;Iterator&lt;/div&gt;" style="swimlane;fontStyle=0;childLayout=stackLayout;horizontal=1;startSize=26;fillColor=none;horizontalStack=0;resizeParent=1;resizeParentMax=0;resizeLast=0;collapsible=1;marginBottom=0;whiteSpace=wrap;html=1;" parent="1" vertex="1">
          <mxGeometry x="570" y="313" width="140" height="104" as="geometry" />
        </mxCell>
        <mxCell id="iIwBfgPybOV4BaAUDwty-32" value="+hasNext()" style="text;strokeColor=none;fillColor=none;align=left;verticalAlign=top;spacingLeft=4;spacingRight=4;overflow=hidden;rotatable=0;points=[[0,0.5],[1,0.5]];portConstraint=eastwest;whiteSpace=wrap;html=1;" parent="iIwBfgPybOV4BaAUDwty-10" vertex="1">
          <mxGeometry y="26" width="140" height="26" as="geometry" />
        </mxCell>
        <mxCell id="iIwBfgPybOV4BaAUDwty-33" value="+hasNext()" style="text;strokeColor=none;fillColor=none;align=left;verticalAlign=top;spacingLeft=4;spacingRight=4;overflow=hidden;rotatable=0;points=[[0,0.5],[1,0.5]];portConstraint=eastwest;whiteSpace=wrap;html=1;" parent="iIwBfgPybOV4BaAUDwty-10" vertex="1">
          <mxGeometry y="52" width="140" height="26" as="geometry" />
        </mxCell>
        <mxCell id="iIwBfgPybOV4BaAUDwty-11" value="+hasNext()" style="text;strokeColor=none;fillColor=none;align=left;verticalAlign=top;spacingLeft=4;spacingRight=4;overflow=hidden;rotatable=0;points=[[0,0.5],[1,0.5]];portConstraint=eastwest;whiteSpace=wrap;html=1;" parent="iIwBfgPybOV4BaAUDwty-10" vertex="1">
          <mxGeometry y="78" width="140" height="26" as="geometry" />
        </mxCell>
        <mxCell id="iIwBfgPybOV4BaAUDwty-19" value="" style="edgeStyle=orthogonalEdgeStyle;rounded=0;orthogonalLoop=1;jettySize=auto;html=1;startArrow=block;startFill=0;endArrow=none;endFill=0;dashed=1;" parent="1" source="iIwBfgPybOV4BaAUDwty-16" edge="1">
          <mxGeometry relative="1" as="geometry">
            <mxPoint x="159.9999999999999" y="513" as="targetPoint" />
          </mxGeometry>
        </mxCell>
        <mxCell id="iIwBfgPybOV4BaAUDwty-16" value="&amp;lt;&amp;lt;interface&amp;gt;&amp;gt;&lt;div&gt;Aggregate&lt;/div&gt;" style="swimlane;fontStyle=0;childLayout=stackLayout;horizontal=1;startSize=26;fillColor=none;horizontalStack=0;resizeParent=1;resizeParentMax=0;resizeLast=0;collapsible=1;marginBottom=0;whiteSpace=wrap;html=1;" parent="1" vertex="1">
          <mxGeometry x="90" y="313" width="140" height="52" as="geometry" />
        </mxCell>
        <mxCell id="iIwBfgPybOV4BaAUDwty-47" value="+createIterator()" style="text;strokeColor=none;fillColor=none;align=left;verticalAlign=top;spacingLeft=4;spacingRight=4;overflow=hidden;rotatable=0;points=[[0,0.5],[1,0.5]];portConstraint=eastwest;whiteSpace=wrap;html=1;" parent="iIwBfgPybOV4BaAUDwty-16" vertex="1">
          <mxGeometry y="26" width="140" height="26" as="geometry" />
        </mxCell>
        <mxCell id="iIwBfgPybOV4BaAUDwty-20" value="&amp;lt;&amp;lt;interface&amp;gt;&amp;gt;&lt;div&gt;Aggregate&lt;/div&gt;" style="swimlane;fontStyle=0;childLayout=stackLayout;horizontal=1;startSize=26;fillColor=none;horizontalStack=0;resizeParent=1;resizeParentMax=0;resizeLast=0;collapsible=1;marginBottom=0;whiteSpace=wrap;html=1;" parent="1" vertex="1">
          <mxGeometry x="570" y="513" width="140" height="104" as="geometry" />
        </mxCell>
        <mxCell id="iIwBfgPybOV4BaAUDwty-30" value="+hasNext()" style="text;strokeColor=none;fillColor=none;align=left;verticalAlign=top;spacingLeft=4;spacingRight=4;overflow=hidden;rotatable=0;points=[[0,0.5],[1,0.5]];portConstraint=eastwest;whiteSpace=wrap;html=1;" parent="iIwBfgPybOV4BaAUDwty-20" vertex="1">
          <mxGeometry y="26" width="140" height="26" as="geometry" />
        </mxCell>
        <mxCell id="iIwBfgPybOV4BaAUDwty-31" value="+next()" style="text;strokeColor=none;fillColor=none;align=left;verticalAlign=top;spacingLeft=4;spacingRight=4;overflow=hidden;rotatable=0;points=[[0,0.5],[1,0.5]];portConstraint=eastwest;whiteSpace=wrap;html=1;" parent="iIwBfgPybOV4BaAUDwty-20" vertex="1">
          <mxGeometry y="52" width="140" height="26" as="geometry" />
        </mxCell>
        <mxCell id="iIwBfgPybOV4BaAUDwty-21" value="+remove()" style="text;strokeColor=none;fillColor=none;align=left;verticalAlign=top;spacingLeft=4;spacingRight=4;overflow=hidden;rotatable=0;points=[[0,0.5],[1,0.5]];portConstraint=eastwest;whiteSpace=wrap;html=1;" parent="iIwBfgPybOV4BaAUDwty-20" vertex="1">
          <mxGeometry y="78" width="140" height="26" as="geometry" />
        </mxCell>
        <mxCell id="iIwBfgPybOV4BaAUDwty-23" style="rounded=0;orthogonalLoop=1;jettySize=auto;html=1;exitX=1;exitY=0.5;exitDx=0;exitDy=0;dashed=1;endArrow=open;endFill=0;entryX=-0.02;entryY=-0.026;entryDx=0;entryDy=0;entryPerimeter=0;" parent="1" target="iIwBfgPybOV4BaAUDwty-30" edge="1">
          <mxGeometry relative="1" as="geometry">
            <mxPoint x="229.9999999999999" y="541" as="sourcePoint" />
            <mxPoint x="570" y="471" as="targetPoint" />
          </mxGeometry>
        </mxCell>
        <mxCell id="iIwBfgPybOV4BaAUDwty-24" value="&amp;lt;&amp;lt;create&amp;gt;&amp;gt;" style="edgeLabel;html=1;align=center;verticalAlign=middle;resizable=0;points=[];" parent="iIwBfgPybOV4BaAUDwty-23" vertex="1" connectable="0">
          <mxGeometry x="-0.231" relative="1" as="geometry">
            <mxPoint x="16" y="-11" as="offset" />
          </mxGeometry>
        </mxCell>
        <mxCell id="iIwBfgPybOV4BaAUDwty-38" value="ConcreteAggregate" style="swimlane;fontStyle=0;childLayout=stackLayout;horizontal=1;startSize=26;fillColor=none;horizontalStack=0;resizeParent=1;resizeParentMax=0;resizeLast=0;collapsible=1;marginBottom=0;whiteSpace=wrap;html=1;" parent="1" vertex="1">
          <mxGeometry x="90" y="513" width="140" height="52" as="geometry" />
        </mxCell>
        <mxCell id="iIwBfgPybOV4BaAUDwty-39" value="+createIterator" style="text;strokeColor=none;fillColor=none;align=left;verticalAlign=top;spacingLeft=4;spacingRight=4;overflow=hidden;rotatable=0;points=[[0,0.5],[1,0.5]];portConstraint=eastwest;whiteSpace=wrap;html=1;" parent="iIwBfgPybOV4BaAUDwty-38" vertex="1">
          <mxGeometry y="26" width="140" height="26" as="geometry" />
        </mxCell>
        <mxCell id="iIwBfgPybOV4BaAUDwty-46" value="Classname" style="swimlane;fontStyle=0;childLayout=stackLayout;horizontal=1;startSize=26;fillColor=none;horizontalStack=0;resizeParent=1;resizeParentMax=0;resizeLast=0;collapsible=1;marginBottom=0;whiteSpace=wrap;html=1;" parent="1" vertex="1">
          <mxGeometry x="300" y="80" width="140" height="78" as="geometry" />
        </mxCell>
        <mxCell id="iIwBfgPybOV4BaAUDwty-48" value="+ field: type" style="text;strokeColor=none;fillColor=none;align=left;verticalAlign=top;spacingLeft=4;spacingRight=4;overflow=hidden;rotatable=0;points=[[0,0.5],[1,0.5]];portConstraint=eastwest;whiteSpace=wrap;html=1;" parent="iIwBfgPybOV4BaAUDwty-46" vertex="1">
          <mxGeometry y="26" width="140" height="26" as="geometry" />
        </mxCell>
        <mxCell id="iIwBfgPybOV4BaAUDwty-49" value="+ field: type" style="text;strokeColor=none;fillColor=none;align=left;verticalAlign=top;spacingLeft=4;spacingRight=4;overflow=hidden;rotatable=0;points=[[0,0.5],[1,0.5]];portConstraint=eastwest;whiteSpace=wrap;html=1;" parent="iIwBfgPybOV4BaAUDwty-46" vertex="1">
          <mxGeometry y="52" width="140" height="26" as="geometry" />
        </mxCell>
      </root>
    </mxGraphModel>
  </diagram>
</mxfile>
